<svg width="20" height="12" viewBox="0 0 20 12" fill="none" xmlns="http://www.w3.org/2000/svg">
<path fill-rule="evenodd" clip-rule="evenodd" d="M5.625 11.375C5.625 11.2092 5.69085 11.0503 5.80806 10.9331C5.92527 10.8158 6.08424 10.75 6.25 10.75H18.75C18.9158 10.75 19.0747 10.8158 19.1919 10.9331C19.3092 11.0503 19.375 11.2092 19.375 11.375C19.375 11.5408 19.3092 11.6997 19.1919 11.8169C19.0747 11.9342 18.9158 12 18.75 12H6.25C6.08424 12 5.92527 11.9342 5.80806 11.8169C5.69085 11.6997 5.625 11.5408 5.625 11.375ZM3.125 6.375C3.125 6.20924 3.19085 6.05027 3.30806 5.93306C3.42527 5.81585 3.58424 5.75 3.75 5.75H16.25C16.4158 5.75 16.5747 5.81585 16.6919 5.93306C16.8092 6.05027 16.875 6.20924 16.875 6.375C16.875 6.54076 16.8092 6.69973 16.6919 6.81694C16.5747 6.93415 16.4158 7 16.25 7H3.75C3.58424 7 3.42527 6.93415 3.30806 6.81694C3.19085 6.69973 3.125 6.54076 3.125 6.375ZM0.625 1.375C0.625 1.20924 0.690848 1.05027 0.808058 0.933058C0.925268 0.815848 1.08424 0.75 1.25 0.75H13.75C13.9158 0.75 14.0747 0.815848 14.1919 0.933058C14.3092 1.05027 14.375 1.20924 14.375 1.375C14.375 1.54076 14.3092 1.69973 14.1919 1.81694C14.0747 1.93415 13.9158 2 13.75 2H1.25C1.08424 2 0.925268 1.93415 0.808058 1.81694C0.690848 1.69973 0.625 1.54076 0.625 1.375Z" fill="#3B82F6"/>
</svg>
